<?xml version="1.0" encoding="UTF-8" standalone="no"?>
<!-- Created with Inkscape (http://www.inkscape.org/) -->

<svg
   xmlns:dc="http://purl.org/dc/elements/1.1/"
   xmlns:cc="http://creativecommons.org/ns#"
   xmlns:rdf="http://www.w3.org/1999/02/22-rdf-syntax-ns#"
   xmlns:svg="http://www.w3.org/2000/svg"
   xmlns="http://www.w3.org/2000/svg"
   xmlns:sodipodi="http://sodipodi.sourceforge.net/DTD/sodipodi-0.dtd"
   xmlns:inkscape="http://www.inkscape.org/namespaces/inkscape"
   width="225"
   height="225"
   id="svg3203"
   version="1.1"
   inkscape:version="0.91 r13725"
   sodipodi:docname="Installer.svg">
  <defs
     id="defs3205">
    <clipPath
       clipPathUnits="userSpaceOnUse"
       id="clipPath16">
      <path
         d="M 0,800 1200,800 1200,0 0,0 0,800 Z"
         id="path18"
         inkscape:connector-curvature="0" />
    </clipPath>
  </defs>
  <sodipodi:namedview
     id="base"
     pagecolor="#ffffff"
     bordercolor="#666666"
     borderopacity="1.0"
     inkscape:pageopacity="0.0"
     inkscape:pageshadow="2"
     inkscape:zoom="0.98994949"
     inkscape:cx="-141.6245"
     inkscape:cy="-161.13007"
     inkscape:document-units="px"
     inkscape:current-layer="layer1"
     showgrid="false"
     fit-margin-top="0"
     fit-margin-left="0"
     fit-margin-right="0"
     fit-margin-bottom="0"
     inkscape:window-width="1920"
     inkscape:window-height="1057"
     inkscape:window-x="1912"
     inkscape:window-y="-8"
     inkscape:window-maximized="1" />
  <metadata
     id="metadata3208">
    <rdf:RDF>
      <cc:Work
         rdf:about="">
        <dc:format>image/svg+xml</dc:format>
        <dc:type
           rdf:resource="http://purl.org/dc/dcmitype/StillImage" />
        <dc:title></dc:title>
      </cc:Work>
    </rdf:RDF>
  </metadata>
  <g
     inkscape:label="Layer 1"
     inkscape:groupmode="layer"
     id="layer1"
     transform="translate(-265.90624,-405.41531)">
    <g
       id="g3475"
       transform="matrix(0.79166148,0,0,0.79166148,81.533185,69.496961)">
      <path
         inkscape:connector-curvature="0"
         id="path22"
         style="fill:#ff8000;fill-opacity:1;fill-rule:nonzero;stroke:none"
         d="m 484.09376,617.91532 c 0,6.875 -5.625,12.5 -12.5,12.5 l -193.18752,0 c -6.875,0 -12.5,-5.625 -12.5,-12.5 l 0,-171.10626 c 0,-6.875 5.625,-12.5 12.5,-12.5 l 193.18752,0 c 6.875,0 12.5,5.625 12.5,12.5 l 0,171.10626 z" />
      <path
         id="path3144"
         d="m 319.20814,471.83985 c -5.25536,0 -9.07821,1.12253 -11.625,3.28125 -2.54679,2.15872 -3.65625,5.29459 -3.65625,8.75 l 0,23.09375 c 0,3.45598 1.10941,6.59143 3.65625,8.75 2.54684,2.15857 6.3697,3.28125 11.625,3.28125 l 29.5,0 c 5.2559,0 9.07799,-1.12268 11.625,-3.28125 2.54701,-2.15857 3.625,-5.29402 3.625,-8.75 l 0,-23.09375 c 0,-3.45541 -1.07803,-6.59129 -3.625,-8.75 -2.54697,-2.15871 -6.36905,-3.28125 -11.625,-3.28125 l -29.5,0 z m 0,9.09375 29.5,0 c 1.74343,0 2.8665,0.35578 3.46875,0.8125 0.60224,0.45672 0.84375,1.0079 0.84375,2.0625 l 0,23.21875 c 0,1.0546 -0.24151,1.60578 -0.84375,2.0625 -0.60224,0.45672 -1.72532,0.8125 -3.46875,0.8125 l -29.5,0 c -1.74344,0 -2.86687,-0.3559 -3.46875,-0.8125 -0.60189,-0.4566 -0.875,-1.00771 -0.875,-2.0625 l 0,-23.21875 c 0,-1.05479 0.27311,-1.6059 0.875,-2.0625 0.60188,-0.4566 1.72531,-0.8125 3.46875,-0.8125 z"
         style="font-variant:normal;font-weight:normal;font-stretch:normal;font-size:1.59405065px;font-family:'Pirulen Rg';-inkscape-font-specification:PirulenRg-Regular;writing-mode:lr-tb;fill:#ffffff;fill-opacity:1;fill-rule:nonzero;stroke:none"
         inkscape:connector-curvature="0" />
      <path
         id="path3146"
         d="m 399.89563,471.83985 c -5.25535,0 -9.07821,1.12253 -11.625,3.28125 -2.54679,2.15872 -3.65625,5.29459 -3.65625,8.75 l 0,2.59375 c 0,3.45599 1.10941,6.59143 3.65625,8.75 2.54684,2.15857 6.3697,3.3125 11.625,3.3125 l 26.28125,0 c 1.74343,0 2.83525,0.35578 3.4375,0.8125 0.60225,0.45672 0.875,1.0079 0.875,2.0625 l 0,5.625 c 0,1.05459 -0.27275,1.60578 -0.875,2.0625 -0.60225,0.45672 -1.69407,0.8125 -3.4375,0.8125 l -38.84375,0 -1.25,0 0,1.25 0,6.59375 0,1.25 1.25,0 38.84375,0 1.25,0 0,-0.15625 c 4.5353,-0.18731 8.0617,-1.16464 10.375,-3.125 2.54714,-2.15853 3.625,-5.29394 3.625,-8.75 l 0,-5.5 c 0,-3.45549 -1.07791,-6.59133 -3.625,-8.75 -2.54709,-2.15867 -6.36964,-3.3125 -11.625,-3.3125 l -26.28125,0 c -1.74412,0 -2.86674,-0.32463 -3.46875,-0.78125 -0.60201,-0.45662 -0.875,-1.0077 -0.875,-2.0625 l 0,-2.75 c 0,-1.05479 0.27299,-1.60588 0.875,-2.0625 0.60201,-0.45662 1.72463,-0.8125 3.46875,-0.8125 l 37.8125,0 1.25,0 0,-1.25 0,-6.59375 0,-1.25 -1.25,0 -37.8125,0 z"
         style="font-variant:normal;font-weight:normal;font-stretch:normal;font-size:1.59405065px;font-family:'Pirulen Rg';-inkscape-font-specification:PirulenRg-Regular;writing-mode:lr-tb;fill:#ffffff;fill-opacity:1;fill-rule:nonzero;stroke:none"
         inkscape:connector-curvature="0" />
      <path
         id="path3164"
         d="m 299.02064,547.99611 1.3125,1.9375 29.6875,44.65625 0.375,0.5625 0.65625,0 6.15625,0 0.6875,0 0.375,-0.5625 29.49999,-44.65625 1.28125,-1.9375 -2.34375,0 -9.31249,0 -0.6875,0 -0.375,0.5625 -22.0625,34.34375 -22.28125,-34.34375 -0.375,-0.5625 -0.65625,0 -9.59375,0 -2.34375,0 z"
         style="font-variant:normal;font-weight:normal;font-stretch:normal;font-size:63.44799805px;font-family:'Pirulen Rg';-inkscape-font-specification:PirulenRg-Regular;writing-mode:lr-tb;fill:#ffffff;fill-opacity:1;fill-rule:nonzero;stroke:none"
         inkscape:connector-curvature="0" />
      <path
         id="path3166"
         d="m 385.52063,547.99611 0,1.25 0,44.65625 0,1.25 1.25,0 8.4375,0 1.25,0 0,-1.25 0,-18.6875 21.53125,0 10.125,19.25 0.34375,0.6875 0.75,0 9,0 2.0625,0 -0.9375,-1.84375 -9.78125,-18.625 c 3.20404,-0.57887 5.82973,-1.62836 7.53125,-3.40625 2.02754,-2.11854 2.90625,-4.98253 2.90625,-8.09375 l 0,-3.15625 c 0,-3.45599 -1.10927,-6.5911 -3.65625,-8.75 -2.54698,-2.1589 -6.36904,-3.28125 -11.625,-3.28125 l -37.9375,0 -1.25,0 z m 10.9375,9.09375 28.25,0 c 1.74399,0 2.86666,0.35562 3.46875,0.8125 0.60209,0.45688 0.84375,1.00771 0.84375,2.0625 l 0,3.28125 c 0,1.05478 -0.24166,1.60561 -0.84375,2.0625 -0.60209,0.45689 -1.72477,0.8125 -3.46875,0.8125 l -28.25,0 0,-9.03125 z"
         style="font-variant:normal;font-weight:normal;font-stretch:normal;font-size:63.44799805px;font-family:'Pirulen Rg';-inkscape-font-specification:PirulenRg-Regular;writing-mode:lr-tb;fill:#ffffff;fill-opacity:1;fill-rule:nonzero;stroke:none"
         inkscape:connector-curvature="0" />
    </g>
    <path
       inkscape:connector-curvature="0"
       d="m 400.28374,621.32336 q 0,-1.26969 -0.92784,-2.19752 -0.92785,-0.92783 -2.19752,-0.92783 -1.26968,0 -2.19752,0.92783 -0.92784,0.92783 -0.92784,2.19752 0,1.26967 0.92784,2.1975 0.92785,0.92785 2.19752,0.92785 1.26967,0 2.19752,-0.92785 0.92784,-0.92783 0.92784,-2.1975 z m 12.50143,0 q 0,-1.26969 -0.92785,-2.19752 -0.92784,-0.92783 -2.19751,-0.92783 -1.26968,0 -2.19752,0.92783 -0.92784,0.92783 -0.92784,2.19752 0,1.26967 0.92784,2.1975 0.92784,0.92785 2.19752,0.92785 1.26967,0 2.19751,-0.92785 0.92785,-0.92783 0.92785,-2.1975 z m 6.25071,-10.93877 0,15.6268 q 0,1.95336 -1.36735,3.32068 -1.36734,1.36735 -3.32069,1.36735 l -71.88321,0 q -1.95335,0 -3.32069,-1.36735 -1.36735,-1.36732 -1.36735,-3.32068 l 0,-15.6268 q 0,-1.95335 1.36735,-3.32068 1.36735,-1.36735 3.32069,-1.36735 l 22.70768,0 6.59254,6.64139 q 2.83236,2.73468 6.64138,2.73468 3.80904,0 6.64139,-2.73468 l 6.64138,-6.64139 22.65884,0 q 1.95335,0 3.32069,1.36735 1.36735,1.36733 1.36735,3.32068 z m -15.87095,-27.78637 q 0.83017,2.00219 -0.68368,3.41836 l -21.8775,21.87751 q -0.879,0.92783 -2.19752,0.92783 -1.31851,0 -2.19751,-0.92783 l -21.8775,-21.87751 q -1.51385,-1.41617 -0.68368,-3.41836 0.83018,-1.90452 2.88119,-1.90452 l 12.50144,0 0,-21.8775 q 0,-1.26967 0.92784,-2.19752 0.92784,-0.92783 2.19752,-0.92783 l 12.50142,0 q 1.26968,0 2.19753,0.92783 0.92784,0.92785 0.92784,2.19752 l 0,21.8775 12.50143,0 q 2.05101,0 2.88118,1.90452 z"
       id="path4" />
  </g>
</svg>
